<?xml version="1.0" standalone="no"?>
<!DOCTYPE svg PUBLIC "-//W3C//DTD SVG 20010904//EN"
 "http://www.w3.org/TR/2001/REC-SVG-20010904/DTD/svg10.dtd">
<svg version="1.0" xmlns="http://www.w3.org/2000/svg"
 width="20.000000pt" height="879.000000pt" viewBox="0 1 901.000000 879.000000"
 preserveAspectRatio="xMidYMid meet">

<g transform="translate(0.000000,879.000000) scale(0.100000,-0.100000)"
fill="#000000" stroke="none">
<path d="M2230 7060 l0 -1720 -1110 0 -1110 0 0 -329 0 -329 190 -209 c104
-114 218 -230 252 -256 102 -78 144 -125 221 -246 l72 -114 178 -119 c97 -66
177 -124 177 -129 0 -6 19 -49 42 -97 33 -69 45 -111 59 -199 17 -106 22 -120
93 -257 60 -113 103 -177 197 -295 116 -145 122 -151 157 -151 33 0 43 -7 96
-70 l59 -70 65 0 64 0 73 -65 c66 -59 76 -65 116 -65 39 0 53 -7 111 -55 l66
-55 275 0 275 0 46 84 c46 84 47 85 101 101 30 8 68 18 85 22 17 3 35 13 39
22 5 9 21 90 36 181 15 91 29 166 30 168 12 13 134 18 208 9 l87 -10 157 -133
157 -133 26 -73 c15 -40 37 -95 50 -123 13 -27 76 -183 140 -345 l118 -295 75
-3 c73 -3 76 -4 103 -39 15 -20 44 -79 65 -132 l38 -96 93 -57 c51 -32 98 -66
105 -75 7 -10 29 -99 49 -199 l37 -180 66 -56 66 -56 50 -202 c28 -112 55
-208 60 -215 6 -7 141 -56 300 -110 219 -74 320 -113 411 -161 l121 -64 194 0
c117 0 359 -12 609 -30 228 -17 416 -30 417 -30 2 0 3 133 3 295 l0 295 -111
223 c-62 122 -122 253 -135 291 -34 99 -32 201 5 328 l29 97 264 278 c145 153
296 312 335 353 70 74 75 77 281 174 l210 99 114 186 113 186 254 151 253 151
82 109 c51 67 124 186 191 309 l108 200 -37 146 -36 146 50 138 50 137 0 180
0 181 -125 195 -125 195 0 62 0 61 -79 101 -78 101 -5 671 c-3 370 -7 673 -9
675 -2 2 -137 13 -300 25 l-296 21 -284 138 c-156 76 -292 142 -301 145 -15 5
-18 19 -18 87 l0 80 -1290 0 -1290 0 0 785 0 785 -1290 0 -1290 0 0 -1720z
m2400 845 l0 -695 -115 0 -115 0 0 580 0 580 -880 0 -880 0 0 -1720 0 -1720
-1115 0 -1115 0 0 -40 c0 -38 8 -50 139 -193 77 -84 154 -161 172 -171 69 -41
189 -169 255 -272 63 -98 70 -105 167 -169 55 -37 142 -98 192 -135 l92 -68
43 -101 c23 -56 55 -118 70 -140 23 -32 32 -62 50 -171 18 -116 27 -144 69
-229 27 -53 71 -124 97 -158 41 -52 54 -62 80 -63 26 0 41 -12 90 -69 l59 -70
54 0 c53 -1 56 -3 132 -71 66 -60 83 -70 114 -70 29 0 49 -10 98 -50 l62 -50
82 0 82 0 31 55 c27 47 37 56 77 67 l47 13 22 125 c24 136 78 279 111 291 10
4 34 8 54 8 20 1 51 4 68 7 28 6 31 10 31 46 l0 40 53 -7 c28 -4 66 -15 82
-25 23 -13 84 -23 247 -39 l217 -20 150 -128 151 -128 0 -149 c0 -141 -1 -148
-17 -134 -181 155 -376 318 -381 318 -4 0 -65 7 -137 14 -113 13 -145 12 -250
-1 -66 -8 -124 -19 -129 -24 -5 -5 -24 -91 -41 -191 l-31 -183 -70 -18 -69
-19 -43 -74 -42 -74 -187 0 -186 0 -68 55 c-59 48 -74 55 -111 55 -40 0 -48 5
-108 65 l-64 65 -66 1 -65 0 -59 70 c-51 60 -63 69 -92 69 -31 0 -41 10 -128
118 -67 84 -111 151 -154 238 -54 107 -62 132 -78 235 -14 91 -25 128 -55 184
-20 39 -45 92 -55 118 -20 55 -38 71 -258 219 l-129 87 -77 118 c-76 118 -132
178 -224 243 -27 19 -127 121 -222 225 l-174 190 3 195 2 195 1113 3 1112 2 0
1720 0 1720 1110 0 1110 0 0 -695z m2578 -1497 l-3 -623 -427 -3 -428 -2 0
240 0 240 -445 0 -445 0 0 -1490 0 -1490 235 0 235 0 0 -425 0 -425 -900 0
-900 0 0 425 0 425 235 0 235 0 0 1490 0 1490 -445 0 -445 0 0 -240 0 -240
-430 0 -430 0 0 625 0 625 2180 0 2180 0 -2 -622z m458 309 l269 -134 234 -17
c129 -9 237 -19 240 -22 4 -3 8 -283 11 -622 3 -361 9 -623 14 -632 6 -8 41
-54 78 -102 66 -83 68 -88 68 -142 0 -55 3 -61 125 -253 l125 -197 0 -134 0
-135 -55 -150 -56 -150 36 -138 35 -138 -81 -153 c-45 -84 -116 -198 -157
-254 l-74 -101 -257 -153 -257 -153 -109 -179 -110 -180 -210 -103 -210 -103
-355 -375 -355 -376 -37 -128 c-33 -114 -37 -140 -38 -244 0 -149 20 -209 164
-496 l106 -213 0 -174 0 -174 -37 4 c-159 17 -504 34 -704 34 l-240 0 -112 61
c-87 49 -166 80 -371 149 l-261 86 -50 193 -50 192 -67 62 -66 62 -21 115
c-12 63 -33 153 -47 200 l-26 85 -100 60 -101 60 -29 76 c-18 45 -56 111 -94
163 l-64 86 -58 0 -59 0 -68 172 c-37 95 -70 179 -72 186 -4 10 21 12 118 10
l124 -3 25 -67 25 -68 40 0 c40 -1 41 -2 140 -137 55 -74 112 -163 126 -197
26 -59 30 -63 132 -125 l105 -65 41 -130 c22 -72 48 -171 57 -219 l17 -88 63
-57 63 -56 41 -166 41 -166 207 -68 c130 -43 244 -88 307 -121 l100 -53 290
-6 c160 -3 316 -9 348 -12 57 -6 57 -6 57 20 0 14 -44 115 -99 224 -54 108
-108 227 -120 263 -16 48 -33 76 -66 109 -42 41 -45 48 -45 96 0 49 2 53 30
63 30 10 30 11 30 85 0 60 10 111 50 251 l49 176 57 62 c32 34 210 222 396
418 l338 356 193 93 192 92 93 153 c50 84 92 159 92 166 0 8 125 89 279 181
318 192 314 188 432 406 l66 123 -32 129 -33 130 59 160 c55 150 59 165 59
247 l0 88 -125 195 c-118 184 -125 198 -125 246 0 48 -4 56 -75 147 l-76 96
-6 559 -6 559 -159 11 -158 12 -242 122 -243 123 -3 123 c-1 67 1 122 6 122 5
0 130 -60 278 -133z m-3968 -1384 l2 -193 -50 0 c-27 0 -50 -3 -49 -7 0 -5
116 -276 258 -603 l258 -595 106 -3 107 -3 0 -194 0 -195 -382 2 -383 3 -3
193 -2 192 61 0 c33 0 59 4 57 9 -1 4 -21 49 -43 100 l-39 91 -314 -2 -313 -3
-40 -89 c-21 -48 -39 -92 -39 -97 0 -5 25 -9 55 -9 l55 0 -2 -192 -3 -193
-382 -3 -383 -2 0 195 0 195 108 0 109 0 256 594 c141 326 257 599 257 605 0
7 -21 11 -55 11 l-55 0 0 188 c0 104 3 192 7 195 4 4 194 6 422 5 l416 -3 3
-192z m2881 -245 c113 -235 207 -426 209 -423 2 2 95 194 207 427 l204 423
325 3 326 2 0 -195 0 -195 -80 0 -80 0 0 -600 0 -600 80 0 80 0 0 -195 0 -195
-355 0 -355 0 0 195 0 195 75 0 75 0 0 423 -1 422 -26 -50 c-14 -27 -125 -252
-246 -500 -120 -247 -222 -453 -226 -458 -4 -4 -114 214 -245 485 -131 271
-242 497 -247 503 -5 5 -9 -169 -9 -408 l0 -417 80 0 80 0 0 -195 0 -195 -355
0 -355 0 0 195 0 195 75 0 75 0 0 600 0 600 -70 0 -70 0 0 195 0 195 312 -2
311 -3 206 -427z m-214 -2245 c167 -84 157 -325 -17 -398 -89 -37 -202 -1
-257 81 -48 73 -51 144 -11 224 51 101 183 143 285 93z"/>
<path d="M3120 6765 l85 -85 1753 0 1753 0 104 81 c58 44 105 82 105 85 0 2
-874 4 -1942 4 l-1943 0 85 -85z"/>
<path d="M6941 6663 l-81 -88 0 -231 0 -231 85 -77 85 -78 0 396 c0 218 -2
396 -4 396 -2 0 -41 -39 -85 -87z"/>
<path d="M5100 4765 l0 -1840 85 85 85 85 0 1670 0 1670 -85 85 -85 85 0
-1840z"/>
<path d="M5662 3017 l-82 -82 0 -81 0 -80 85 -78 85 -77 0 240 c0 133 -1 241
-3 241 -1 0 -39 -37 -85 -83z"/>
<path d="M3212 4688 l-71 -163 136 -3 c75 -1 138 0 141 3 4 4 -122 309 -133
323 -1 1 -34 -71 -73 -160z"/>
<path d="M6204 2801 c-164 -74 -113 -321 67 -321 92 0 161 72 161 169 0 76
-33 126 -105 156 -47 19 -73 19 -123 -4z m140 -52 c29 -23 33 -55 12 -84 -11
-16 -11 -24 0 -52 8 -18 14 -44 14 -58 0 -21 -5 -25 -29 -25 -25 0 -29 4 -37
43 -8 36 -13 42 -36 45 -27 3 -28 2 -28 -42 0 -44 -1 -46 -30 -46 l-30 0 0
120 0 120 69 0 c54 0 74 -4 95 -21z"/>
<path d="M6240 2695 c0 -28 4 -35 19 -35 19 0 51 24 51 39 0 15 -25 31 -47 31
-20 0 -23 -5 -23 -35z"/>
</g>
</svg>
